<?xml version="1.0" encoding="UTF-8"?>
<svg width="1920" height="1080" viewBox="0 0 1920 1080" fill="none" xmlns="http://www.w3.org/2000/svg">
  <defs>
    <linearGradient id="bgGradient" x1="0" y1="0" x2="1" y2="1">
      <stop offset="0%" stop-color="#020b1f" />
      <stop offset="60%" stop-color="#031c3e" />
      <stop offset="100%" stop-color="#010814" />
    </linearGradient>
    <radialGradient id="blueGlow" cx="0.25" cy="0.4" r="0.6">
      <stop offset="0%" stop-color="#0c3f8d" stop-opacity="0.7" />
      <stop offset="100%" stop-color="#020715" stop-opacity="0" />
    </radialGradient>
    <radialGradient id="rightGlow" cx="0.8" cy="0.5" r="0.5">
      <stop offset="0%" stop-color="#0a7bd6" stop-opacity="0.25" />
      <stop offset="100%" stop-color="#020814" stop-opacity="0" />
    </radialGradient>
    <linearGradient id="circuitGradient" x1="0" y1="0" x2="0" y2="1">
      <stop offset="0%" stop-color="#66d9ff" />
      <stop offset="100%" stop-color="#0090ff" stop-opacity="0.3" />
    </linearGradient>
    <linearGradient id="hexBright" x1="0" y1="0" x2="1" y2="1">
      <stop offset="0%" stop-color="#23a8ff" />
      <stop offset="100%" stop-color="#6ed0ff" />
    </linearGradient>
    <linearGradient id="hexMedium" x1="0" y1="0" x2="1" y2="1">
      <stop offset="0%" stop-color="#083b7a" />
      <stop offset="100%" stop-color="#0d63b5" />
    </linearGradient>
    <linearGradient id="hexDark" x1="0" y1="0" x2="1" y2="1">
      <stop offset="0%" stop-color="#041a35" />
      <stop offset="100%" stop-color="#06345c" />
    </linearGradient>
    <clipPath id="clipHex">
      <rect x="910" y="120" width="860" height="840" />
    </clipPath>
  </defs>

  <rect width="1920" height="1080" fill="url(#bgGradient)" />
  <rect width="1920" height="1080" fill="url(#blueGlow)" />
  <rect width="1920" height="1080" fill="url(#rightGlow)" />

  <g stroke="url(#circuitGradient)" stroke-width="4" stroke-linecap="round" stroke-linejoin="round" opacity="0.8">
    <path d="M120 80v160h90v90l70 70" />
    <path d="M200 180h160v-80l120-60" />
    <path d="M260 280v100h100v80l80 80" />
    <path d="M70 220v200h120v120l110 110" />
    <path d="M70 620h120v-100l110-110" opacity="0.6" />
    <path d="M120 980V840h110v-90l90-90" opacity="0.5" />
    <path d="M300 940v-140h120v-80l110-110" opacity="0.4" />
    <circle cx="120" cy="80" r="6" fill="#66d9ff" />
    <circle cx="200" cy="180" r="5" fill="#66d9ff" />
    <circle cx="260" cy="280" r="5" fill="#66d9ff" />
    <circle cx="70" cy="220" r="5" fill="#66d9ff" />
    <circle cx="120" cy="980" r="5" fill="#66d9ff" />
  </g>

  <g clip-path="url(#clipHex)">
    <g opacity="0.8">
      <polygon points="1180,260 1260,215 1340,260 1340,350 1260,395 1180,350" fill="url(#hexMedium)" stroke="#0d5bb0" stroke-width="3" />
      <polygon points="1340,350 1420,305 1500,350 1500,440 1420,485 1340,440" fill="url(#hexBright)" stroke="#4cc5ff" stroke-width="3" />
      <polygon points="1020,350 1100,305 1180,350 1180,440 1100,485 1020,440" fill="url(#hexDark)" stroke="#083055" stroke-width="3" />
      <polygon points="1500,440 1580,395 1660,440 1660,530 1580,575 1500,530" fill="url(#hexMedium)" stroke="#0d5bb0" stroke-width="3" />
      <polygon points="1180,530 1260,485 1340,530 1340,620 1260,665 1180,620" fill="url(#hexBright)" stroke="#4cc5ff" stroke-width="3" />
      <polygon points="1340,620 1420,575 1500,620 1500,710 1420,755 1340,710" fill="url(#hexDark)" stroke="#083055" stroke-width="3" />
      <polygon points="1020,620 1100,575 1180,620 1180,710 1100,755 1020,710" fill="url(#hexMedium)" stroke="#0d5bb0" stroke-width="3" />
      <polygon points="1500,260 1580,215 1660,260 1660,350 1580,395 1500,350" fill="url(#hexDark)" stroke="#083055" stroke-width="3" />
      <polygon points="1660,350 1740,305 1820,350 1820,440 1740,485 1660,440" fill="url(#hexBright)" stroke="#4cc5ff" stroke-width="3" />
      <polygon points="1180,710 1260,665 1340,710 1340,800 1260,845 1180,800" fill="url(#hexDark)" stroke="#083055" stroke-width="3" />
      <polygon points="1340,800 1420,755 1500,800 1500,890 1420,935 1340,890" fill="url(#hexBright)" stroke="#4cc5ff" stroke-width="3" />
    </g>
    <g stroke="#0a5ca8" stroke-width="2" opacity="0.45">
      <polygon points="1100,215 1180,170 1260,215 1260,305 1180,350 1100,305" fill="none" />
      <polygon points="1260,395 1340,350 1420,395 1420,485 1340,530 1260,485" fill="none" />
      <polygon points="1420,485 1500,440 1580,485 1580,575 1500,620 1420,575" fill="none" />
      <polygon points="1580,575 1660,530 1740,575 1740,665 1660,710 1580,665" fill="none" />
      <polygon points="1100,755 1180,710 1260,755 1260,845 1180,890 1100,845" fill="none" />
      <polygon points="1260,845 1340,800 1420,845 1420,935 1340,980 1260,935" fill="none" />
    </g>
  </g>
</svg>
