<svg xmlns="http://www.w3.org/2000/svg" viewBox="0 0 128 128" role="img" aria-label="Sistema de Ocorrências Logo">
  <defs>
    <linearGradient id="grad" x1="0%" y1="0%" x2="100%" y2="100%">
      <stop offset="0%" stop-color="#3869d2"/>
      <stop offset="100%" stop-color="#c57cf9"/>
    </linearGradient>
    <filter id="shadow" x="-50%" y="-50%" width="200%" height="200%">
      <feDropShadow dx="0" dy="4" stdDeviation="4" flood-color="#000" flood-opacity="0.35"/>
    </filter>
  </defs>

  <!-- Hexágono com gradiente -->
  <g filter="url(#shadow)">
    <polygon points="64,6 111,32 111,96 64,122 17,96 17,32" fill="url(#grad)" stroke="rgba(255,255,255,0.18)" stroke-width="2"/>
    <!-- Símbolo SO -->
    <g fill="#fff">
      <path opacity="0.92" d="M44 70c0 6 5 10 12 10 5 0 9-2 12-5l6 6c-5 5-12 8-19 8-13 0-23-8-23-19 0-9 6-14 14-17l9-3c4-1 7-3 7-7 0-5-5-8-10-8-6 0-10 3-13 7l-7-6c5-7 12-10 21-10 12 0 22 7 22 18 0 10-7 14-16 17l-9 3c-4 1-6 3-6 6z"/>
      <circle cx="87" cy="83" r="11" fill="rgba(255,255,255,0.95)"/>
      <path d="M87 74a9 9 0 1 1 0 18 9 9 0 0 1 0-18z" fill="#3869d2"/>
    </g>
  </g>
</svg>
